<mxfile modified="2023-02-24T10:31:08.060Z" host="app.diagrams.net" agent="5.0 (Macintosh; Intel Mac OS X 10_15_7) AppleWebKit/537.36 (KHTML, like Gecko) Chrome/109.0.0.0 Safari/537.36" etag="QhlEbZgp6QL9_AQTy6zM" version="20.8.23" type="github">
  <diagram id="Ht1M8jgEwFfnCIfOTk4-" name="Page-1">
    <mxGraphModel dx="2074" dy="1901" grid="1" gridSize="10" guides="1" tooltips="1" connect="1" arrows="1" fold="1" page="1" pageScale="1" pageWidth="1169" pageHeight="827" math="0" shadow="0">
      <root>
        <mxCell id="0" />
        <mxCell id="1" parent="0" />
        <mxCell id="1pdppxs77dE7KQzOFC2R-21" value="Consumers" style="fillColor=none;strokeColor=#5A6C86;dashed=1;verticalAlign=top;fontStyle=0;fontColor=#5A6C86;" vertex="1" parent="1">
          <mxGeometry x="784" y="-650" width="130" height="460" as="geometry" />
        </mxCell>
        <mxCell id="1pdppxs77dE7KQzOFC2R-25" style="edgeStyle=orthogonalEdgeStyle;rounded=0;orthogonalLoop=1;jettySize=auto;html=1;entryX=0;entryY=0.75;entryDx=0;entryDy=0;" edge="1" parent="1" source="1pdppxs77dE7KQzOFC2R-1" target="1pdppxs77dE7KQzOFC2R-21">
          <mxGeometry relative="1" as="geometry" />
        </mxCell>
        <mxCell id="1pdppxs77dE7KQzOFC2R-1" value="SQS" style="outlineConnect=0;dashed=0;verticalLabelPosition=bottom;verticalAlign=top;align=center;html=1;shape=mxgraph.aws3.sqs;fillColor=#D9A741;gradientColor=none;" vertex="1" parent="1">
          <mxGeometry x="510" y="-431.5" width="76.5" height="93" as="geometry" />
        </mxCell>
        <mxCell id="1pdppxs77dE7KQzOFC2R-14" style="edgeStyle=orthogonalEdgeStyle;rounded=0;orthogonalLoop=1;jettySize=auto;html=1;entryX=0;entryY=0.5;entryDx=0;entryDy=0;entryPerimeter=0;" edge="1" parent="1" source="1pdppxs77dE7KQzOFC2R-2" target="1pdppxs77dE7KQzOFC2R-1">
          <mxGeometry relative="1" as="geometry" />
        </mxCell>
        <mxCell id="1pdppxs77dE7KQzOFC2R-19" style="edgeStyle=orthogonalEdgeStyle;rounded=0;orthogonalLoop=1;jettySize=auto;html=1;" edge="1" parent="1" source="1pdppxs77dE7KQzOFC2R-2" target="1pdppxs77dE7KQzOFC2R-16">
          <mxGeometry relative="1" as="geometry">
            <Array as="points">
              <mxPoint x="338" y="-590" />
            </Array>
          </mxGeometry>
        </mxCell>
        <mxCell id="1pdppxs77dE7KQzOFC2R-20" value="Large messages" style="edgeLabel;html=1;align=center;verticalAlign=middle;resizable=0;points=[];" vertex="1" connectable="0" parent="1pdppxs77dE7KQzOFC2R-19">
          <mxGeometry x="0.3459" y="1" relative="1" as="geometry">
            <mxPoint as="offset" />
          </mxGeometry>
        </mxCell>
        <mxCell id="1pdppxs77dE7KQzOFC2R-2" value="Api Gateway" style="outlineConnect=0;dashed=0;verticalLabelPosition=bottom;verticalAlign=top;align=center;html=1;shape=mxgraph.aws3.api_gateway;fillColor=#D9A741;gradientColor=none;" vertex="1" parent="1">
          <mxGeometry x="300" y="-431.5" width="76.5" height="93" as="geometry" />
        </mxCell>
        <mxCell id="1pdppxs77dE7KQzOFC2R-6" value="" style="sketch=0;points=[[0,0,0],[0.25,0,0],[0.5,0,0],[0.75,0,0],[1,0,0],[0,1,0],[0.25,1,0],[0.5,1,0],[0.75,1,0],[1,1,0],[0,0.25,0],[0,0.5,0],[0,0.75,0],[1,0.25,0],[1,0.5,0],[1,0.75,0]];outlineConnect=0;fontColor=#232F3E;gradientColor=#F78E04;gradientDirection=north;fillColor=#D05C17;strokeColor=#ffffff;dashed=0;verticalLabelPosition=bottom;verticalAlign=top;align=center;html=1;fontSize=12;fontStyle=0;aspect=fixed;shape=mxgraph.aws4.resourceIcon;resIcon=mxgraph.aws4.fargate;" vertex="1" parent="1">
          <mxGeometry x="810" y="-600" width="78" height="78" as="geometry" />
        </mxCell>
        <mxCell id="1pdppxs77dE7KQzOFC2R-11" value="" style="dashed=0;outlineConnect=0;html=1;align=center;labelPosition=center;verticalLabelPosition=bottom;verticalAlign=top;shape=mxgraph.weblogos.json_2" vertex="1" parent="1">
          <mxGeometry x="114.8" y="-397.6" width="80.4" height="25.200000000000003" as="geometry" />
        </mxCell>
        <mxCell id="1pdppxs77dE7KQzOFC2R-13" style="edgeStyle=orthogonalEdgeStyle;rounded=0;orthogonalLoop=1;jettySize=auto;html=1;" edge="1" parent="1" source="1pdppxs77dE7KQzOFC2R-12" target="1pdppxs77dE7KQzOFC2R-2">
          <mxGeometry relative="1" as="geometry" />
        </mxCell>
        <mxCell id="1pdppxs77dE7KQzOFC2R-12" value="Producer" style="sketch=0;outlineConnect=0;gradientColor=none;html=1;whiteSpace=wrap;fontSize=12;fontStyle=0;shape=mxgraph.aws4.group;grIcon=mxgraph.aws4.group_on_premise;strokeColor=#858B94;fillColor=none;verticalAlign=top;align=left;spacingLeft=30;fontColor=#858B94;dashed=0;" vertex="1" parent="1">
          <mxGeometry x="90" y="-450" width="130" height="130" as="geometry" />
        </mxCell>
        <mxCell id="1pdppxs77dE7KQzOFC2R-24" style="edgeStyle=orthogonalEdgeStyle;rounded=0;orthogonalLoop=1;jettySize=auto;html=1;entryX=0;entryY=0.25;entryDx=0;entryDy=0;" edge="1" parent="1" source="1pdppxs77dE7KQzOFC2R-16" target="1pdppxs77dE7KQzOFC2R-21">
          <mxGeometry relative="1" as="geometry" />
        </mxCell>
        <mxCell id="1pdppxs77dE7KQzOFC2R-16" value="" style="outlineConnect=0;dashed=0;verticalLabelPosition=bottom;verticalAlign=top;align=center;html=1;shape=mxgraph.aws3.bucket_with_objects;fillColor=#E05243;gradientColor=none;" vertex="1" parent="1">
          <mxGeometry x="510" y="-620" width="60" height="61.5" as="geometry" />
        </mxCell>
        <mxCell id="1pdppxs77dE7KQzOFC2R-22" value="" style="sketch=0;points=[[0,0,0],[0.25,0,0],[0.5,0,0],[0.75,0,0],[1,0,0],[0,1,0],[0.25,1,0],[0.5,1,0],[0.75,1,0],[1,1,0],[0,0.25,0],[0,0.5,0],[0,0.75,0],[1,0.25,0],[1,0.5,0],[1,0.75,0]];outlineConnect=0;fontColor=#232F3E;gradientColor=#F78E04;gradientDirection=north;fillColor=#D05C17;strokeColor=#ffffff;dashed=0;verticalLabelPosition=bottom;verticalAlign=top;align=center;html=1;fontSize=12;fontStyle=0;aspect=fixed;shape=mxgraph.aws4.resourceIcon;resIcon=mxgraph.aws4.fargate;" vertex="1" parent="1">
          <mxGeometry x="810" y="-480" width="78" height="78" as="geometry" />
        </mxCell>
        <mxCell id="1pdppxs77dE7KQzOFC2R-23" value="" style="sketch=0;points=[[0,0,0],[0.25,0,0],[0.5,0,0],[0.75,0,0],[1,0,0],[0,1,0],[0.25,1,0],[0.5,1,0],[0.75,1,0],[1,1,0],[0,0.25,0],[0,0.5,0],[0,0.75,0],[1,0.25,0],[1,0.5,0],[1,0.75,0]];outlineConnect=0;fontColor=#232F3E;gradientColor=#F78E04;gradientDirection=north;fillColor=#D05C17;strokeColor=#ffffff;dashed=0;verticalLabelPosition=bottom;verticalAlign=top;align=center;html=1;fontSize=12;fontStyle=0;aspect=fixed;shape=mxgraph.aws4.resourceIcon;resIcon=mxgraph.aws4.fargate;" vertex="1" parent="1">
          <mxGeometry x="810" y="-340" width="78" height="78" as="geometry" />
        </mxCell>
        <mxCell id="1pdppxs77dE7KQzOFC2R-26" value="SQS messages container either the message or a reference to S3 file if larger than &amp;gt;256kb" style="text;html=1;align=center;verticalAlign=middle;resizable=0;points=[];autosize=1;strokeColor=none;fillColor=none;" vertex="1" parent="1">
          <mxGeometry x="255" y="-275" width="510" height="30" as="geometry" />
        </mxCell>
        <mxCell id="1pdppxs77dE7KQzOFC2R-27" value="Autoscale consumers&lt;br&gt;on ApproximateNumberOfMessagesVisible" style="text;html=1;align=center;verticalAlign=middle;resizable=0;points=[];autosize=1;strokeColor=none;fillColor=none;" vertex="1" parent="1">
          <mxGeometry x="724" y="-700" width="250" height="40" as="geometry" />
        </mxCell>
      </root>
    </mxGraphModel>
  </diagram>
</mxfile>
